{
    "asset" : {
        "generator" : "Khronos glTF Blender I/O v1.2.75",
        "version" : "2.0"
    },
    "scene" : 0,
    "scenes" : [
        {
            "name" : "Scene",
            "nodes" : [
                4,
                5,
                6,
                7,
                8,
                9,
                10
            ]
        }
    ],
    "nodes" : [
        {
            "name" : "NOSE_TIP",
            "translation" : [
                0,
                -0.4630002975463867,
                -7.586580753326416
            ]
        },
        {
            "name" : "FOREHEAD_RIGHT",
            "rotation" : [
                0.14623039960861206,
                -0.27242934703826904,
                0.0419309064745903,
                0.9500740766525269
            ],
            "scale" : [
                1,
                0.9999998211860657,
                1
            ],
            "translation" : [
                3.7090003490448,
                6.9639997482299805,
                -3.9810001850128174
            ]
        },
        {
            "name" : "FOREHEAD_LEFT",
            "rotation" : [
                0.14623038470745087,
                0.2724294066429138,
                -0.04193088784813881,
                0.9500740766525269
            ],
            "translation" : [
                -3.7090001106262207,
                6.964009761810303,
                -3.980999708175659
            ]
        },
        {
            "children" : [
                0,
                1,
                2
            ],
            "name" : "root",
            "rotation" : [
                -0.7071068286895752,
                0,
                0,
                0.7071068286895752
            ]
        },
        {
            "children" : [
                3
            ],
            "name" : "asset",
            "rotation" : [
                0.7071067690849304,
                0,
                0,
                0.7071067690849304
            ],
            "scale" : [
                0.009999999776482582,
                0.009999999776482582,
                0.009999999776482582
            ]
        },
        {
            "mesh" : 0,
            "name" : "Plane",
            "skin" : 0
        },
        {
            "mesh" : 1,
            "name" : "Plane.001",
            "skin" : 0
        },
        {
            "mesh" : 2,
            "name" : "Plane.002",
            "skin" : 0
        },
        {
            "mesh" : 3,
            "name" : "Plane.003",
            "skin" : 0
        },
        {
            "mesh" : 4,
            "name" : "Plane.004",
            "skin" : 0
        },
        {
            "mesh" : 5,
            "name" : "Plane.005",
            "skin" : 0
        }
    ],
    "materials" : [
        {
            "doubleSided" : true,
            "emissiveFactor" : [
                0,
                0,
                0
            ],
            "name" : "hair opaque.001",
            "pbrMetallicRoughness" : {
                "baseColorTexture" : {
                    "index" : 0,
                    "texCoord" : 0
                },
                "metallicFactor" : 0,
                "roughnessFactor" : 0.4000000059604645
            }
        },
        {
            "doubleSided" : true,
            "emissiveFactor" : [
                0,
                0,
                0
            ],
            "name" : "hair transp.001",
            "pbrMetallicRoughness" : {
                "baseColorTexture" : {
                    "index" : 1,
                    "texCoord" : 0
                },
                "metallicFactor" : 0,
                "roughnessFactor" : 0.5
            }
        }
    ],
    "meshes" : [
        {
            "name" : "Plane.001",
            "primitives" : [
                {
                    "attributes" : {
                        "POSITION" : 0,
                        "NORMAL" : 1,
                        "TEXCOORD_0" : 2,
                        "JOINTS_0" : 3,
                        "WEIGHTS_0" : 4
                    },
                    "indices" : 5,
                    "material" : 0
                }
            ]
        },
        {
            "name" : "Plane.002",
            "primitives" : [
                {
                    "attributes" : {
                        "POSITION" : 7,
                        "NORMAL" : 8,
                        "TEXCOORD_0" : 9,
                        "JOINTS_0" : 10,
                        "WEIGHTS_0" : 11
                    },
                    "indices" : 12,
                    "material" : 0
                }
            ]
        },
        {
            "name" : "Plane.003",
            "primitives" : [
                {
                    "attributes" : {
                        "POSITION" : 13,
                        "NORMAL" : 14,
                        "TEXCOORD_0" : 15,
                        "JOINTS_0" : 16,
                        "WEIGHTS_0" : 17
                    },
                    "indices" : 18,
                    "material" : 0
                }
            ]
        },
        {
            "name" : "Plane.004",
            "primitives" : [
                {
                    "attributes" : {
                        "POSITION" : 19,
                        "NORMAL" : 20,
                        "TEXCOORD_0" : 21,
                        "JOINTS_0" : 22,
                        "WEIGHTS_0" : 23
                    },
                    "indices" : 24,
                    "material" : 1
                }
            ]
        },
        {
            "name" : "Plane.005",
            "primitives" : [
                {
                    "attributes" : {
                        "POSITION" : 25,
                        "NORMAL" : 26,
                        "TEXCOORD_0" : 27,
                        "JOINTS_0" : 28,
                        "WEIGHTS_0" : 29
                    },
                    "indices" : 30,
                    "material" : 1
                }
            ]
        },
        {
            "name" : "Plane.012",
            "primitives" : [
                {
                    "attributes" : {
                        "POSITION" : 31,
                        "NORMAL" : 32,
                        "TEXCOORD_0" : 33,
                        "JOINTS_0" : 34,
                        "WEIGHTS_0" : 35
                    },
                    "indices" : 36,
                    "material" : 1
                }
            ]
        }
    ],
    "textures" : [
        {
            "source" : 0
        },
        {
            "source" : 0
        }
    ],
    "images" : [
        {
            "bufferView" : 6,
            "mimeType" : "image/png",
            "name" : "AverageGuy"
        }
    ],
    "skins" : [
        {
            "inverseBindMatrices" : 6,
            "joints" : [
                3,
                0,
                1,
                2
            ],
            "name" : "asset"
        }
    ],
    "accessors" : [
        {
            "bufferView" : 0,
            "componentType" : 5126,
            "count" : 912,
            "max" : [
                0.08429427444934845,
                0.13635140657424927,
                0.156642884016037
            ],
            "min" : [
                -0.08415284752845764,
                -0.05484606325626373,
                0.006039945874363184
            ],
            "type" : "VEC3"
        },
        {
            "bufferView" : 1,
            "componentType" : 5126,
            "count" : 912,
            "type" : "VEC3"
        },
        {
            "bufferView" : 2,
            "componentType" : 5126,
            "count" : 912,
            "type" : "VEC2"
        },
        {
            "bufferView" : 3,
            "componentType" : 5123,
            "count" : 912,
            "type" : "VEC4"
        },
        {
            "bufferView" : 4,
            "componentType" : 5126,
            "count" : 912,
            "type" : "VEC4"
        },
        {
            "bufferView" : 5,
            "componentType" : 5123,
            "count" : 4608,
            "type" : "SCALAR"
        },
        {
            "bufferView" : 7,
            "componentType" : 5126,
            "count" : 4,
            "type" : "MAT4"
        },
        {
            "bufferView" : 8,
            "componentType" : 5126,
            "count" : 2127,
            "max" : [
                0.08964133262634277,
                0.1350347250699997,
                0.04934275150299072
            ],
            "min" : [
                -0.09108181297779083,
                0.036717697978019714,
                -0.06504468619823456
            ],
            "type" : "VEC3"
        },
        {
            "bufferView" : 9,
            "componentType" : 5126,
            "count" : 2127,
            "type" : "VEC3"
        },
        {
            "bufferView" : 10,
            "componentType" : 5126,
            "count" : 2127,
            "type" : "VEC2"
        },
        {
            "bufferView" : 11,
            "componentType" : 5123,
            "count" : 2127,
            "type" : "VEC4"
        },
        {
            "bufferView" : 12,
            "componentType" : 5126,
            "count" : 2127,
            "type" : "VEC4"
        },
        {
            "bufferView" : 13,
            "componentType" : 5123,
            "count" : 10176,
            "type" : "SCALAR"
        },
        {
            "bufferView" : 14,
            "componentType" : 5126,
            "count" : 770,
            "max" : [
                0.08809980750083923,
                0.14330753684043884,
                0.16464711725711823
            ],
            "min" : [
                -0.0876803919672966,
                -0.010951142758131027,
                -0.015363315120339394
            ],
            "type" : "VEC3"
        },
        {
            "bufferView" : 15,
            "componentType" : 5126,
            "count" : 770,
            "type" : "VEC3"
        },
        {
            "bufferView" : 16,
            "componentType" : 5126,
            "count" : 770,
            "type" : "VEC2"
        },
        {
            "bufferView" : 17,
            "componentType" : 5123,
            "count" : 770,
            "type" : "VEC4"
        },
        {
            "bufferView" : 18,
            "componentType" : 5126,
            "count" : 770,
            "type" : "VEC4"
        },
        {
            "bufferView" : 19,
            "componentType" : 5123,
            "count" : 3840,
            "type" : "SCALAR"
        },
        {
            "bufferView" : 20,
            "componentType" : 5126,
            "count" : 167,
            "max" : [
                0.00034398160642012954,
                0.08702191710472107,
                0.005976605694741011
            ],
            "min" : [
                -0.07294809073209763,
                0.01687535271048546,
                -0.06474873423576355
            ],
            "type" : "VEC3"
        },
        {
            "bufferView" : 21,
            "componentType" : 5126,
            "count" : 167,
            "type" : "VEC3"
        },
        {
            "bufferView" : 22,
            "componentType" : 5126,
            "count" : 167,
            "type" : "VEC2"
        },
        {
            "bufferView" : 23,
            "componentType" : 5123,
            "count" : 167,
            "type" : "VEC4"
        },
        {
            "bufferView" : 24,
            "componentType" : 5126,
            "count" : 167,
            "type" : "VEC4"
        },
        {
            "bufferView" : 25,
            "componentType" : 5123,
            "count" : 852,
            "type" : "SCALAR"
        },
        {
            "bufferView" : 26,
            "componentType" : 5126,
            "count" : 198,
            "max" : [
                -0.03267956152558327,
                0.0740901455283165,
                0.01680019125342369
            ],
            "min" : [
                -0.08257531374692917,
                0.0048064542934298515,
                -0.040842775255441666
            ],
            "type" : "VEC3"
        },
        {
            "bufferView" : 27,
            "componentType" : 5126,
            "count" : 198,
            "type" : "VEC3"
        },
        {
            "bufferView" : 28,
            "componentType" : 5126,
            "count" : 198,
            "type" : "VEC2"
        },
        {
            "bufferView" : 29,
            "componentType" : 5123,
            "count" : 198,
            "type" : "VEC4"
        },
        {
            "bufferView" : 30,
            "componentType" : 5126,
            "count" : 198,
            "type" : "VEC4"
        },
        {
            "bufferView" : 31,
            "componentType" : 5123,
            "count" : 996,
            "type" : "SCALAR"
        },
        {
            "bufferView" : 32,
            "componentType" : 5126,
            "count" : 115,
            "max" : [
                -0.03120582178235054,
                0.07136712968349457,
                0.005798807367682457
            ],
            "min" : [
                -0.07388820499181747,
                0.01053420640528202,
                -0.05617303401231766
            ],
            "type" : "VEC3"
        },
        {
            "bufferView" : 33,
            "componentType" : 5126,
            "count" : 115,
            "type" : "VEC3"
        },
        {
            "bufferView" : 34,
            "componentType" : 5126,
            "count" : 115,
            "type" : "VEC2"
        },
        {
            "bufferView" : 35,
            "componentType" : 5123,
            "count" : 115,
            "type" : "VEC4"
        },
        {
            "bufferView" : 36,
            "componentType" : 5126,
            "count" : 115,
            "type" : "VEC4"
        },
        {
            "bufferView" : 37,
            "componentType" : 5123,
            "count" : 498,
            "type" : "SCALAR"
        }
    ],
    "bufferViews" : [
        {
            "buffer" : 0,
            "byteLength" : 10944,
            "byteOffset" : 0
        },
        {
            "buffer" : 0,
            "byteLength" : 10944,
            "byteOffset" : 10944
        },
        {
            "buffer" : 0,
            "byteLength" : 7296,
            "byteOffset" : 21888
        },
        {
            "buffer" : 0,
            "byteLength" : 7296,
            "byteOffset" : 29184
        },
        {
            "buffer" : 0,
            "byteLength" : 14592,
            "byteOffset" : 36480
        },
        {
            "buffer" : 0,
            "byteLength" : 9216,
            "byteOffset" : 51072
        },
        {
            "buffer" : 0,
            "byteLength" : 1669616,
            "byteOffset" : 60288
        },
        {
            "buffer" : 0,
            "byteLength" : 256,
            "byteOffset" : 1729904
        },
        {
            "buffer" : 0,
            "byteLength" : 25524,
            "byteOffset" : 1730160
        },
        {
            "buffer" : 0,
            "byteLength" : 25524,
            "byteOffset" : 1755684
        },
        {
            "buffer" : 0,
            "byteLength" : 17016,
            "byteOffset" : 1781208
        },
        {
            "buffer" : 0,
            "byteLength" : 17016,
            "byteOffset" : 1798224
        },
        {
            "buffer" : 0,
            "byteLength" : 34032,
            "byteOffset" : 1815240
        },
        {
            "buffer" : 0,
            "byteLength" : 20352,
            "byteOffset" : 1849272
        },
        {
            "buffer" : 0,
            "byteLength" : 9240,
            "byteOffset" : 1869624
        },
        {
            "buffer" : 0,
            "byteLength" : 9240,
            "byteOffset" : 1878864
        },
        {
            "buffer" : 0,
            "byteLength" : 6160,
            "byteOffset" : 1888104
        },
        {
            "buffer" : 0,
            "byteLength" : 6160,
            "byteOffset" : 1894264
        },
        {
            "buffer" : 0,
            "byteLength" : 12320,
            "byteOffset" : 1900424
        },
        {
            "buffer" : 0,
            "byteLength" : 7680,
            "byteOffset" : 1912744
        },
        {
            "buffer" : 0,
            "byteLength" : 2004,
            "byteOffset" : 1920424
        },
        {
            "buffer" : 0,
            "byteLength" : 2004,
            "byteOffset" : 1922428
        },
        {
            "buffer" : 0,
            "byteLength" : 1336,
            "byteOffset" : 1924432
        },
        {
            "buffer" : 0,
            "byteLength" : 1336,
            "byteOffset" : 1925768
        },
        {
            "buffer" : 0,
            "byteLength" : 2672,
            "byteOffset" : 1927104
        },
        {
            "buffer" : 0,
            "byteLength" : 1704,
            "byteOffset" : 1929776
        },
        {
            "buffer" : 0,
            "byteLength" : 2376,
            "byteOffset" : 1931480
        },
        {
            "buffer" : 0,
            "byteLength" : 2376,
            "byteOffset" : 1933856
        },
        {
            "buffer" : 0,
            "byteLength" : 1584,
            "byteOffset" : 1936232
        },
        {
            "buffer" : 0,
            "byteLength" : 1584,
            "byteOffset" : 1937816
        },
        {
            "buffer" : 0,
            "byteLength" : 3168,
            "byteOffset" : 1939400
        },
        {
            "buffer" : 0,
            "byteLength" : 1992,
            "byteOffset" : 1942568
        },
        {
            "buffer" : 0,
            "byteLength" : 1380,
            "byteOffset" : 1944560
        },
        {
            "buffer" : 0,
            "byteLength" : 1380,
            "byteOffset" : 1945940
        },
        {
            "buffer" : 0,
            "byteLength" : 920,
            "byteOffset" : 1947320
        },
        {
            "buffer" : 0,
            "byteLength" : 920,
            "byteOffset" : 1948240
        },
        {
            "buffer" : 0,
            "byteLength" : 1840,
            "byteOffset" : 1949160
        },
        {
            "buffer" : 0,
            "byteLength" : 996,
            "byteOffset" : 1951000
        }
    ],
    "buffers" : [
        {
            "byteLength" : 1951996,
            "uri" : "data:application/octet-stream;base64,"
        }
    ]
}
